<?xml version="1.0" ?><svg height="23px" version="1.1" viewBox="0 0 11 23" width="11px" xmlns="http://www.w3.org/2000/svg" xmlns:sketch="http://www.bohemiancoding.com/sketch/ns" xmlns:xlink="http://www.w3.org/1999/xlink"><title/><defs><path d="M0,2.00308167 L0,20.0308166 C0,22.0338983 2.00000001,22.0338983 2.00000001,22.0338983 L8.99999999,22.0338983 C8.99999999,22.0338983 11,22.0338983 11,20.0308166 L11,2.00308167 C11,0 8.99999999,0 8.99999999,0 L2.00000001,0 C2.00000001,0 0,0 0,2.00308167 Z M1,2.5 L1,18.5 L10,18.5 L10,2.5 L1,2.5 L1,2.5 Z M5.5,21.1999969 C6.05228477,21.1999969 6.5,20.7522817 6.5,20.1999969 C6.5,19.6477122 6.05228477,19.1999969 5.5,19.1999969 C4.94771523,19.1999969 4.5,19.6477122 4.5,20.1999969 C4.5,20.7522817 4.94771523,21.1999969 5.5,21.1999969 L5.5,21.1999969 Z M4.13277718,1 C4.05944636,1 4.00000001,1.09655358 4.00000001,1.2211029 L4.00000001,1.27966755 C4.00000001,1.4017793 4.05992614,1.50077042 4.13277718,1.50077042 L6.86722284,1.50077042 C6.94055366,1.50077042 7.00000001,1.40421684 7.00000001,1.27966755 L7.00000001,1.2211029 C7.00000001,1.09899114 6.94007388,1 6.86722284,1 L4.13277718,1 L4.13277718,1 Z" id="path-1"/></defs><g fill="none" fill-rule="evenodd" id="miu" stroke="none" stroke-width="1"><g id="device_iPhone_smart-phone_vertical_glyph"><use fill="#000000" fill-rule="evenodd" xlink:href="#path-1"/><use fill="none" xlink:href="#path-1"/></g></g></svg>